<svg width="27" height="14" viewBox="0 0 27 14" fill="none" xmlns="http://www.w3.org/2000/svg">
<g opacity="0.35">
<path d="M20.4146 1.086H4.2412C2.47042 1.086 1.03491 2.653 1.03491 4.586V9.586C1.03491 11.519 2.47042 13.086 4.2412 13.086H20.4146C22.1854 13.086 23.6209 11.519 23.6209 9.586V4.586C23.6209 2.653 22.1854 1.086 20.4146 1.086Z" stroke="white" stroke-miterlimit="10"/>
</g>
<path opacity="0.4" d="M25.1279 5.086V9.086C25.4885 8.92029 25.7963 8.64214 26.0127 8.28637C26.2291 7.93061 26.3445 7.51305 26.3445 7.086C26.3445 6.65895 26.2291 6.24139 26.0127 5.88562C25.7963 5.52986 25.4885 5.2517 25.1279 5.086Z" fill="white"/>
<path d="M19.723 2.586H4.79088C3.47543 2.586 2.40906 3.75006 2.40906 5.186V8.986C2.40906 10.4219 3.47543 11.586 4.79088 11.586H19.723C21.0385 11.586 22.1049 10.4219 22.1049 8.986V5.186C22.1049 3.75006 21.0385 2.586 19.723 2.586Z" fill="white"/>
</svg>
