<svg width="13" height="14" viewBox="0 0 13 14" fill="none" xmlns="http://www.w3.org/2000/svg">
<path fill-rule="evenodd" clip-rule="evenodd" d="M9.29134 0.623021C9.16932 0.514515 9.01172 0.454566 8.84843 0.454544C8.67162 0.454544 8.50205 0.524782 8.37703 0.649806C8.252 0.77483 8.18176 0.9444 8.18176 1.12121V1.78788H4.18176V1.12121L4.1771 1.04321C4.15703 0.87448 4.07329 0.719781 3.94298 0.610721C3.81268 0.50166 3.64565 0.446471 3.47603 0.456429C3.3064 0.466387 3.14697 0.540741 3.03033 0.664299C2.91368 0.787856 2.84862 0.951291 2.84843 1.12121V1.78788H2.18176L2.06443 1.79121C1.55517 1.82114 1.07659 2.04454 0.726618 2.4157C0.376646 2.78687 0.181734 3.27774 0.181763 3.78788V11.7879L0.185096 11.9052C0.215024 12.4145 0.438425 12.893 0.809589 13.243C1.18075 13.593 1.67162 13.7879 2.18176 13.7879H10.1818L10.2991 13.7845C10.8084 13.7546 11.2869 13.5312 11.6369 13.1601C11.9869 12.7889 12.1818 12.298 12.1818 11.7879V3.78788L12.1784 3.67054C12.1485 3.16128 11.9251 2.68271 11.5539 2.33273C11.1828 1.98276 10.6919 1.78785 10.1818 1.78788H9.5151V1.12121L9.51043 1.04321C9.49132 0.881043 9.41337 0.731527 9.29134 0.623021ZM1.5151 5.12121H10.8484V11.5379L10.8438 11.6445C10.8058 12.1012 10.5238 12.4545 10.1818 12.4545H2.18176L2.10376 12.4485C1.77243 12.3952 1.5151 12.0079 1.5151 11.5379V5.12121ZM6.62466 7.28968C6.50263 7.18118 6.34503 7.12123 6.18174 7.12121H5.51507L5.43707 7.12587C5.26834 7.14594 5.11364 7.22968 5.00458 7.35999C4.89552 7.49029 4.84033 7.65732 4.85029 7.82694C4.86025 7.99657 4.9346 8.156 5.05816 8.27264C5.18172 8.38929 5.34515 8.45435 5.51507 8.45454V9.78787L5.51974 9.86588C5.53981 10.0346 5.62355 10.1893 5.75385 10.2984C5.88415 10.4074 6.05118 10.4626 6.22081 10.4527C6.39044 10.4427 6.54986 10.3683 6.66651 10.2448C6.78315 10.1212 6.84822 9.95779 6.84841 9.78787V7.78787L6.84374 7.70988C6.82464 7.54771 6.74668 7.39819 6.62466 7.28968Z" fill="url(#paint0_linear_12_10299)"/>
<defs>
<linearGradient id="paint0_linear_12_10299" x1="-0.218237" y1="2.05454" x2="11.3818" y2="13.2545" gradientUnits="userSpaceOnUse">
<stop stop-color="#B2AFFE"/>
<stop offset="1" stop-color="#252376"/>
</linearGradient>
</defs>
</svg>
