<svg width="19" height="13" viewBox="0 0 19 13" fill="none" xmlns="http://www.w3.org/2000/svg">
<path d="M16.3617 12.421C16.2271 12.4209 16.0938 12.3918 15.9694 12.3353C15.8451 12.2789 15.7322 12.1962 15.6371 12.0921C15.5421 11.988 15.4668 11.8645 15.4156 11.7285C15.3643 11.5926 15.3381 11.447 15.3385 11.3V1.618C15.3385 1.32166 15.4462 1.03744 15.6381 0.827808C15.83 0.618171 16.0903 0.500265 16.3617 0.5L17.3859 0.5C17.6575 0.5 17.918 0.617789 18.1101 0.827455C18.3022 1.03712 18.4101 1.32149 18.4101 1.618V11.3C18.4101 11.5965 18.3022 11.8809 18.1101 12.0905C17.918 12.3002 17.6575 12.418 17.3859 12.418L16.3617 12.421ZM11.4149 12.421C11.2802 12.4209 11.1469 12.3918 11.0226 12.3353C10.8983 12.2789 10.7853 12.1962 10.6903 12.0921C10.5953 11.988 10.52 11.8645 10.4687 11.7285C10.4174 11.5926 10.3913 11.447 10.3916 11.3V4.225C10.3916 3.92875 10.4994 3.64464 10.6913 3.43516C10.8832 3.22568 11.1435 3.108 11.4149 3.108H12.4391C12.7105 3.108 12.9709 3.22565 13.1629 3.4351C13.355 3.64455 13.463 3.92866 13.4632 4.225V11.3C13.4632 11.5965 13.3553 11.8809 13.1633 12.0905C12.9712 12.3002 12.7107 12.418 12.4391 12.418L11.4149 12.421ZM6.37642 12.421C6.24177 12.4209 6.10847 12.3918 5.98413 12.3353C5.8598 12.2789 5.74688 12.1962 5.65184 12.0921C5.5568 11.988 5.48149 11.8645 5.43024 11.7285C5.37899 11.5926 5.3528 11.447 5.35316 11.3V6.833C5.3534 6.53666 5.46141 6.25255 5.65346 6.0431C5.8455 5.83365 6.10587 5.716 6.37734 5.716H7.40152C7.67283 5.71626 7.93296 5.83403 8.12481 6.04345C8.31666 6.25287 8.42454 6.53683 8.42479 6.833V11.3C8.42479 11.4468 8.3983 11.5922 8.34683 11.7278C8.29536 11.8635 8.21991 11.9867 8.12481 12.0905C8.02971 12.1944 7.9168 12.2767 7.79254 12.3329C7.66828 12.3891 7.5351 12.418 7.40061 12.418L6.37642 12.421ZM1.33797 12.421C1.20331 12.4209 1.07001 12.3918 0.945675 12.3353C0.821342 12.2789 0.708423 12.1962 0.61338 12.0921C0.518337 11.988 0.443035 11.8645 0.391785 11.7285C0.340534 11.5926 0.31434 11.447 0.314701 11.3V9.069C0.314701 8.92218 0.341192 8.7768 0.392662 8.64116C0.444132 8.50552 0.519573 8.38227 0.614677 8.27845C0.709781 8.17464 0.822686 8.09229 0.946945 8.0361C1.0712 7.97992 1.20438 7.951 1.33888 7.951H2.36306C2.63438 7.95153 2.89441 8.06955 3.08608 8.27916C3.27776 8.48877 3.38541 8.77283 3.38541 9.069V11.3C3.38541 11.5963 3.27763 11.8806 3.08576 12.0902C2.89389 12.2998 2.63362 12.4177 2.36215 12.418L1.33797 12.421Z" fill="white"/>
</svg>
