<svg width="393" height="19" viewBox="0 0 393 19" fill="none" xmlns="http://www.w3.org/2000/svg">
<path opacity="0.6" d="M-49.7065 14.5H-50.6025V11.392C-51.0505 11.252 -51.4005 10.874 -51.6805 10.244L-53.9205 5.148H-52.9545L-50.8685 10.006C-50.6725 10.426 -50.4905 10.664 -50.1405 10.664C-49.8045 10.664 -49.6225 10.426 -49.4265 10.006L-47.3265 5.148H-46.3605L-48.6285 10.244C-48.8945 10.874 -49.2585 11.252 -49.7065 11.392V14.5ZM-38.4188 14.5H-43.8368C-44.5088 14.5 -44.7328 14.164 -44.7328 13.618V6.03C-44.7328 5.484 -44.5088 5.148 -43.8368 5.148H-38.5448V5.988H-43.8368V9.404H-38.7968V10.244H-43.8368V13.66H-38.4188V14.5ZM-33.4712 14.612C-34.9552 14.612 -36.2432 13.926 -36.7612 12.694L-36.0052 12.316C-35.5992 13.24 -34.6752 13.758 -33.4712 13.758C-32.1832 13.758 -31.2032 13.1 -31.2032 11.952C-31.2032 10.706 -32.3232 10.468 -33.5552 10.216C-34.9692 9.908 -36.5792 9.488 -36.5792 7.626C-36.5792 6.156 -35.2212 5.05 -33.5972 5.05C-32.2532 5.05 -31.0492 5.694 -30.5312 6.926L-31.2732 7.318C-31.6932 6.408 -32.5192 5.904 -33.6252 5.904C-34.7312 5.904 -35.6832 6.618 -35.6832 7.598C-35.6832 8.83 -34.5352 9.082 -33.3032 9.348C-31.8892 9.656 -30.3072 10.076 -30.3072 11.952C-30.3072 13.548 -31.6792 14.612 -33.4712 14.612ZM-22.4115 5.148V5.988H-25.3935V14.5H-26.2895V5.988H-29.2575V5.148H-22.4115ZM-14.5204 14.5H-19.9384C-20.6104 14.5 -20.8344 14.164 -20.8344 13.618V6.03C-20.8344 5.484 -20.6104 5.148 -19.9384 5.148H-14.6464V5.988H-19.9384V9.404H-14.8984V10.244H-19.9384V13.66H-14.5204V14.5ZM-11.2948 14.5H-12.1768V5.148H-9.2228C-7.3608 5.148 -5.8768 6.002 -5.8768 7.85C-5.8768 9.236 -6.7588 10.174 -8.1728 10.412C-7.2768 10.776 -6.8008 11.672 -6.1988 12.89L-5.4008 14.5H-6.3668L-7.1088 13.016C-7.7668 11.7 -8.2848 10.748 -9.8108 10.748H-11.2948V14.5ZM-9.2228 5.988H-11.2808V9.922H-9.2508C-7.8368 9.922 -6.7868 9.264 -6.7868 7.92C-6.7868 6.562 -7.8928 5.988 -9.2228 5.988ZM4.923 9.754C4.923 12.722 2.683 14.5 -0.145 14.5H-3.085V5.148H-0.0469997C2.921 5.148 4.923 6.996 4.923 9.754ZM3.999 9.754C3.999 7.5 2.319 5.988 -0.0469997 5.988H-2.189V13.66H-0.145C2.123 13.66 3.999 12.218 3.999 9.754ZM6.01281 14.5L8.64481 6.128C8.88281 5.372 9.44281 5.008 10.1428 5.008C10.8428 5.008 11.4028 5.372 11.6408 6.128L14.2728 14.5H13.3628L12.5648 11.882L7.73481 11.896L6.92281 14.5H6.01281ZM9.42881 6.394L7.98681 11.07H12.3128L10.8708 6.394C10.7448 6.002 10.5208 5.82 10.1428 5.82C9.76481 5.82 9.54081 6.002 9.42881 6.394ZM18.5708 14.5H17.6748V11.392C17.2268 11.252 16.8768 10.874 16.5968 10.244L14.3568 5.148H15.3228L17.4088 10.006C17.6048 10.426 17.7868 10.664 18.1368 10.664C18.4728 10.664 18.6548 10.426 18.8508 10.006L20.9508 5.148H21.9168L19.6488 10.244C19.3828 10.874 19.0188 11.252 18.5708 11.392V14.5Z" fill="#B2AFFE"/>
<rect opacity="0.6" x="34.5" y="9" width="1" height="1" rx="0.5" fill="#B2AFFE"/>
<rect opacity="0.6" x="37.5" y="8" width="3" height="3" rx="1.5" fill="#B2AFFE"/>
<rect opacity="0.6" x="42.5" y="9" width="1" height="1" rx="0.5" fill="#B2AFFE"/>
<path d="M62.9913 2.62V3.936H60.1073V12H58.6793V3.936H55.8093V2.62H62.9913ZM68.5775 12.168C65.8475 12.168 63.7475 10.054 63.7475 7.296C63.7475 4.58 65.8615 2.466 68.5775 2.466C71.2795 2.466 73.3795 4.58 73.3795 7.296C73.3795 10.054 71.2795 12.168 68.5775 12.168ZM68.5775 10.81C70.4255 10.81 71.9095 9.27 71.9095 7.296C71.9095 5.35 70.4395 3.824 68.5775 3.824C66.7155 3.824 65.2175 5.35 65.2175 7.296C65.2175 9.27 66.7015 10.81 68.5775 10.81ZM83.6353 7.268C83.6353 10.208 81.4373 12 78.5393 12H75.3613V2.62H78.6093C81.6193 2.62 83.6353 4.482 83.6353 7.268ZM82.1653 7.268C82.1653 5.28 80.7093 3.936 78.6093 3.936H76.7893V10.698H78.5393C80.5833 10.698 82.1653 9.41 82.1653 7.268ZM84.6505 12L87.2125 3.754C87.4925 2.872 88.1785 2.452 88.9625 2.452C89.7605 2.452 90.4465 2.872 90.7265 3.754L93.2885 12H91.8325L91.1465 9.704L86.7785 9.718L86.0925 12H84.6505ZM88.4445 4.174L87.1705 8.416H90.7685L89.5085 4.174C89.4105 3.88 89.2425 3.74 88.9765 3.74C88.6965 3.74 88.5285 3.88 88.4445 4.174ZM95.4008 7.8L93.1468 2.62H94.6728L96.6888 7.408C96.8428 7.73 96.9548 7.898 97.1788 7.898C97.4028 7.898 97.5288 7.716 97.6688 7.408L99.6848 2.62H101.225L98.9428 7.8C98.6908 8.402 98.3268 8.794 97.8928 9.004V12H96.4648V9.004C96.0308 8.808 95.6668 8.402 95.4008 7.8Z" fill="#B2AFFE"/>
<rect x="55.5" y="17" width="19.5" height="1" rx="0.5" fill="#B2AFFE"/>
<rect x="77" y="16" width="3" height="3" rx="1.5" fill="#B2AFFE"/>
<rect x="82" y="17" width="19.5" height="1" rx="0.5" fill="#B2AFFE"/>
<rect opacity="0.6" x="113.5" y="9" width="1" height="1" rx="0.5" fill="#B2AFFE"/>
<rect opacity="0.6" x="116.5" y="8" width="3" height="3" rx="1.5" fill="#B2AFFE"/>
<rect opacity="0.6" x="121.5" y="9" width="1" height="1" rx="0.5" fill="#B2AFFE"/>
<path opacity="0.6" d="M141.98 5.148V5.988H138.998V14.5H138.102V5.988H135.134V5.148H141.98ZM147.533 14.64C144.873 14.64 142.787 12.54 142.787 9.81C142.787 7.122 144.887 5.022 147.533 5.022C150.179 5.022 152.265 7.122 152.265 9.81C152.265 12.54 150.165 14.64 147.533 14.64ZM147.533 13.786C149.633 13.786 151.341 12.036 151.341 9.81C151.341 7.612 149.647 5.876 147.533 5.876C145.419 5.876 143.711 7.612 143.711 9.81C143.711 12.036 145.405 13.786 147.533 13.786ZM154.668 14.514H153.758L155.102 6.03C155.214 5.358 155.704 5.008 156.292 5.008C156.81 5.008 157.286 5.274 157.454 5.876L159.47 12.988C159.526 13.198 159.568 13.282 159.694 13.282C159.82 13.282 159.862 13.198 159.918 12.988L161.92 5.904C162.088 5.302 162.564 5.022 163.096 5.022C163.67 5.022 164.16 5.386 164.258 6.072L165.476 14.5H164.58L163.432 6.324C163.39 6.016 163.306 5.82 163.054 5.82C162.858 5.82 162.718 5.988 162.648 6.268L160.576 13.394C160.45 13.828 160.1 14.052 159.694 14.052C159.302 14.052 158.924 13.828 158.812 13.408L156.726 6.24C156.642 5.946 156.544 5.806 156.334 5.806C156.124 5.806 155.984 5.974 155.928 6.31L154.668 14.514ZM171.719 14.64C169.059 14.64 166.973 12.54 166.973 9.81C166.973 7.122 169.073 5.022 171.719 5.022C174.365 5.022 176.451 7.122 176.451 9.81C176.451 12.54 174.351 14.64 171.719 14.64ZM171.719 13.786C173.819 13.786 175.527 12.036 175.527 9.81C175.527 7.612 173.833 5.876 171.719 5.876C169.605 5.876 167.897 7.612 167.897 9.81C167.897 12.036 169.591 13.786 171.719 13.786ZM179.497 14.5H178.615V5.148H181.569C183.431 5.148 184.915 6.002 184.915 7.85C184.915 9.236 184.033 10.174 182.619 10.412C183.515 10.776 183.991 11.672 184.593 12.89L185.391 14.5H184.425L183.683 13.016C183.025 11.7 182.507 10.748 180.981 10.748H179.497V14.5ZM181.569 5.988H179.511V9.922H181.541C182.955 9.922 184.005 9.264 184.005 7.92C184.005 6.562 182.899 5.988 181.569 5.988ZM188.589 14.5H187.707V5.148H190.661C192.523 5.148 194.007 6.002 194.007 7.85C194.007 9.236 193.125 10.174 191.711 10.412C192.607 10.776 193.083 11.672 193.685 12.89L194.483 14.5H193.517L192.775 13.016C192.117 11.7 191.599 10.748 190.073 10.748H188.589V14.5ZM190.661 5.988H188.603V9.922H190.633C192.047 9.922 193.097 9.264 193.097 7.92C193.097 6.562 191.991 5.988 190.661 5.988ZM200.635 14.64C197.975 14.64 195.889 12.54 195.889 9.81C195.889 7.122 197.989 5.022 200.635 5.022C203.281 5.022 205.367 7.122 205.367 9.81C205.367 12.54 203.267 14.64 200.635 14.64ZM200.635 13.786C202.735 13.786 204.443 12.036 204.443 9.81C204.443 7.612 202.749 5.876 200.635 5.876C198.521 5.876 196.813 7.612 196.813 9.81C196.813 12.036 198.507 13.786 200.635 13.786ZM208.206 13.604L206.344 5.148H207.24L209.018 13.352C209.088 13.688 209.2 13.856 209.396 13.856C209.592 13.856 209.732 13.702 209.816 13.352L211.51 6.058C211.65 5.428 212.042 5.134 212.518 5.134C213.008 5.134 213.386 5.414 213.54 6.044L215.332 13.338C215.416 13.674 215.514 13.842 215.738 13.842C215.948 13.842 216.046 13.66 216.102 13.338L217.698 5.148H218.594L216.928 13.492C216.788 14.178 216.438 14.64 215.78 14.64C215.122 14.64 214.758 14.276 214.562 13.492L212.784 6.254C212.728 6.016 212.658 5.932 212.518 5.932C212.392 5.932 212.308 6.016 212.252 6.254L210.544 13.632C210.39 14.29 209.956 14.654 209.396 14.654C208.822 14.654 208.36 14.29 208.206 13.604Z" fill="#B2AFFE"/>
<rect opacity="0.6" x="231.5" y="9" width="1" height="1" rx="0.5" fill="#B2AFFE"/>
<rect opacity="0.6" x="234.5" y="8" width="3" height="3" rx="1.5" fill="#B2AFFE"/>
<rect opacity="0.6" x="239.5" y="9" width="1" height="1" rx="0.5" fill="#B2AFFE"/>
<path opacity="0.6" d="M255.246 13.604L253.384 5.148H254.28L256.058 13.352C256.128 13.688 256.24 13.856 256.436 13.856C256.632 13.856 256.772 13.702 256.856 13.352L258.55 6.058C258.69 5.428 259.082 5.134 259.558 5.134C260.048 5.134 260.426 5.414 260.58 6.044L262.372 13.338C262.456 13.674 262.554 13.842 262.778 13.842C262.988 13.842 263.086 13.66 263.142 13.338L264.738 5.148H265.634L263.968 13.492C263.828 14.178 263.478 14.64 262.82 14.64C262.162 14.64 261.798 14.276 261.602 13.492L259.824 6.254C259.768 6.016 259.698 5.932 259.558 5.932C259.432 5.932 259.348 6.016 259.292 6.254L257.584 13.632C257.43 14.29 256.996 14.654 256.436 14.654C255.862 14.654 255.4 14.29 255.246 13.604ZM273.802 14.5H268.384C267.712 14.5 267.488 14.164 267.488 13.618V6.03C267.488 5.484 267.712 5.148 268.384 5.148H273.676V5.988H268.384V9.404H273.424V10.244H268.384V13.66H273.802V14.5ZM282.319 14.5H276.901C276.229 14.5 276.005 14.164 276.005 13.618V6.03C276.005 5.484 276.229 5.148 276.901 5.148H282.193V5.988H276.901V9.404H281.941V10.244H276.901V13.66H282.319V14.5ZM285.559 14.5H284.663V5.148H285.559V9.432H287.071C287.155 9.082 287.337 8.746 287.659 8.396L290.557 5.148H291.621L288.443 8.704C288.093 9.124 287.883 9.488 287.883 9.838C287.883 10.202 288.093 10.538 288.443 10.944L291.719 14.5H290.585L287.659 11.308C287.323 10.958 287.141 10.594 287.057 10.244H285.559V14.5Z" fill="#B2AFFE"/>
<rect opacity="0.6" x="304.5" y="9" width="1" height="1" rx="0.5" fill="#B2AFFE"/>
<rect opacity="0.6" x="307.5" y="8" width="3" height="3" rx="1.5" fill="#B2AFFE"/>
<rect opacity="0.6" x="312.5" y="9" width="1" height="1" rx="0.5" fill="#B2AFFE"/>
<path opacity="0.6" d="M327.644 14.514H326.734L328.078 6.03C328.19 5.358 328.68 5.008 329.268 5.008C329.786 5.008 330.262 5.274 330.43 5.876L332.446 12.988C332.502 13.198 332.544 13.282 332.67 13.282C332.796 13.282 332.838 13.198 332.894 12.988L334.896 5.904C335.064 5.302 335.54 5.022 336.072 5.022C336.646 5.022 337.136 5.386 337.234 6.072L338.452 14.5H337.556L336.408 6.324C336.366 6.016 336.282 5.82 336.03 5.82C335.834 5.82 335.694 5.988 335.624 6.268L333.552 13.394C333.426 13.828 333.076 14.052 332.67 14.052C332.278 14.052 331.9 13.828 331.788 13.408L329.702 6.24C329.618 5.946 329.52 5.806 329.31 5.806C329.1 5.806 328.96 5.974 328.904 6.31L327.644 14.514ZM344.695 14.64C342.035 14.64 339.949 12.54 339.949 9.81C339.949 7.122 342.049 5.022 344.695 5.022C347.341 5.022 349.427 7.122 349.427 9.81C349.427 12.54 347.327 14.64 344.695 14.64ZM344.695 13.786C346.795 13.786 348.503 12.036 348.503 9.81C348.503 7.612 346.809 5.876 344.695 5.876C342.581 5.876 340.873 7.612 340.873 9.81C340.873 12.036 342.567 13.786 344.695 13.786ZM352.32 14.5H351.466V6.226C351.466 5.442 351.928 5.008 352.586 5.008C353.118 5.008 353.44 5.232 353.678 5.708L357.556 13.506C357.696 13.786 357.78 13.898 357.976 13.898C358.144 13.898 358.228 13.772 358.228 13.52V5.148H359.082V13.436C359.082 14.22 358.564 14.64 358.004 14.64C357.514 14.64 357.122 14.43 356.884 13.94L352.992 6.072C352.88 5.834 352.796 5.722 352.628 5.722C352.418 5.722 352.32 5.876 352.32 6.17V14.5ZM367.525 5.148V5.988H364.543V14.5H363.647V5.988H360.679V5.148H367.525ZM370.138 14.5H369.242V5.148H370.138V9.418H375.696V5.148H376.592V14.5H375.696V10.258H370.138V14.5Z" fill="#B2AFFE"/>
<rect opacity="0.6" x="390.5" y="9" width="1" height="1" rx="0.5" fill="#B2AFFE"/>
</svg>
