<svg width="17" height="13" viewBox="0 0 17 13" fill="none" xmlns="http://www.w3.org/2000/svg">
<path d="M8.15232 12.093L6.11494 9.85101C6.08429 9.81758 6.06031 9.77757 6.04455 9.7335C6.02878 9.68944 6.02156 9.64228 6.02334 9.59501C6.02428 9.54754 6.03412 9.50079 6.05223 9.45762C6.07035 9.41446 6.09637 9.37579 6.12869 9.34401C6.75868 8.76274 7.55691 8.44382 8.3818 8.44382C9.20668 8.44382 10.0049 8.76274 10.6349 9.34401C10.6672 9.37595 10.6932 9.41477 10.7113 9.45808C10.7293 9.50139 10.7391 9.54828 10.74 9.59585C10.7408 9.64343 10.7328 9.6907 10.7163 9.73475C10.6998 9.7788 10.6752 9.81871 10.6441 9.85201L8.60395 12.093C8.57439 12.1256 8.53922 12.1514 8.50046 12.1691C8.4617 12.1867 8.42012 12.1958 8.37813 12.1958C8.33614 12.1958 8.29456 12.1867 8.2558 12.1691C8.21704 12.1514 8.18187 12.1256 8.15232 12.093ZM11.737 8.16701C10.8167 7.25828 9.61998 6.7551 8.37905 6.7551C7.13811 6.7551 5.94141 7.25828 5.02114 8.16701C4.96139 8.22913 4.88175 8.26328 4.79924 8.26216C4.71674 8.26103 4.6379 8.22474 4.57959 8.16101L3.40242 6.86101C3.37134 6.82777 3.34665 6.7881 3.3298 6.74431C3.31294 6.70053 3.30426 6.65351 3.30426 6.60601C3.30426 6.55852 3.31294 6.5115 3.3298 6.46772C3.34665 6.42393 3.37134 6.38425 3.40242 6.35101C4.75383 4.98076 6.53002 4.2192 8.37447 4.2192C10.2189 4.2192 11.9951 4.98076 13.3465 6.35101C13.3776 6.38425 13.4023 6.42393 13.4191 6.46772C13.436 6.5115 13.4447 6.55852 13.4447 6.60601C13.4447 6.65351 13.436 6.70053 13.4191 6.74431C13.4023 6.7881 13.3776 6.82777 13.3465 6.86101L12.1693 8.16101C12.111 8.22474 12.0322 8.26103 11.9497 8.26216C11.8672 8.26328 11.7875 8.22913 11.7278 8.16701H11.737ZM14.4486 5.17901C12.8102 3.48072 10.637 2.53386 8.37767 2.53386C6.11831 2.53386 3.94516 3.48072 2.30678 5.17901C2.24821 5.24289 2.1688 5.27877 2.08601 5.27877C2.00321 5.27877 1.9238 5.24289 1.86523 5.17901L0.682565 3.87701C0.652013 3.84376 0.627773 3.80425 0.611234 3.76075C0.594695 3.71725 0.586182 3.67061 0.586182 3.62351C0.586182 3.57642 0.594695 3.52978 0.611234 3.48628C0.627773 3.44278 0.652013 3.40327 0.682565 3.37001C2.75204 1.2074 5.50637 0.000244141 8.37126 0.000244141C11.2362 0.000244141 13.9905 1.2074 16.06 3.37001C16.0905 3.40327 16.1147 3.44278 16.1313 3.48628C16.1478 3.52978 16.1563 3.57642 16.1563 3.62351C16.1563 3.67061 16.1478 3.71725 16.1313 3.76075C16.1147 3.80425 16.0905 3.84376 16.06 3.87701L14.881 5.17701C14.8224 5.24089 14.743 5.27677 14.6602 5.27677C14.5774 5.27677 14.498 5.24089 14.4394 5.17701L14.4486 5.17901Z" fill="white"/>
</svg>
